<?xml version="1.0" encoding="utf-8"?>
<!-- Generator: Adobe Illustrator 13.0.0, SVG Export Plug-In  -->
<!DOCTYPE svg PUBLIC "-//W3C//DTD SVG 1.1//EN" "http://www.w3.org/Graphics/SVG/1.1/DTD/svg11.dtd" [
	<!ENTITY ns_flows "http://ns.adobe.com/Flows/1.0/">
]>
<svg version="1.1"
	 xmlns="http://www.w3.org/2000/svg" xmlns:xlink="http://www.w3.org/1999/xlink" xmlns:a="http://ns.adobe.com/AdobeSVGViewerExtensions/3.0/"
	 x="0px" y="0px" width="366px" height="240px" viewBox="56 293 366 240" enable-background="new 56 293 366 240"
	 xml:space="preserve">
<defs>
</defs>
<g>
	<defs>
		<rect id="SVGID_12_" y="205" width="510" height="476"/>
	</defs>
	<clipPath id="SVGID_13_">
		<use xlink:href="#SVGID_12_"  overflow="visible"/>
	</clipPath>
	<path clip-path="url(#SVGID_13_)" fill="#FFFFFF" d="M350.595,403.761c-0.25,0-0.495,0.016-0.744,0.019
		c0.086-1.634,0.131-3.278,0.131-4.933c0-51.225-41.526-92.752-92.752-92.752c-32.51,0-61.108,16.73-77.669,42.046
		c-29.393,1.884-52.794,25.751-53.937,55.341C94.253,404.078,69,429.679,69,461.192c0,31.89,25.851,57.741,57.739,57.741
		c2.09,0,4.153-0.117,6.186-0.334h209.071c2.806,0.419,5.676,0.64,8.599,0.64c31.889,0,57.74-25.851,57.74-57.739
		C408.335,429.612,382.483,403.761,350.595,403.761"/>
	
		<path clip-path="url(#SVGID_13_)" fill="none" stroke="#85878A" stroke-width="25.798" stroke-linecap="round" stroke-linejoin="round" d="
		M350.595,403.761c-0.25,0-0.495,0.016-0.744,0.019c0.086-1.634,0.131-3.278,0.131-4.933c0-51.225-41.526-92.752-92.752-92.752
		c-32.51,0-61.108,16.73-77.669,42.046c-29.393,1.884-52.794,25.751-53.937,55.341C94.253,404.078,69,429.679,69,461.192
		c0,31.89,25.851,57.741,57.739,57.741c2.09,0,4.153-0.117,6.186-0.334h209.071c2.806,0.419,5.676,0.64,8.599,0.64
		c31.889,0,57.74-25.851,57.74-57.739C408.335,429.612,382.483,403.761,350.595,403.761z"/>
</g>
<g>
	<defs>
		<rect id="SVGID_11_" y="205" width="510" height="476"/>
	</defs>
	<clipPath id="SVGID_14_">
		<use xlink:href="#SVGID_11_"  overflow="visible"/>
	</clipPath>
	<g clip-path="url(#SVGID_14_)">
		<defs>
			<rect id="SVGID_10_" x="191.519" y="401.141" width="45.059" height="81.855"/>
		</defs>
		<clipPath id="SVGID_15_">
			<use xlink:href="#SVGID_10_"  overflow="visible"/>
		</clipPath>
		<g clip-path="url(#SVGID_15_)">
			<defs>
				<rect id="SVGID_9_" x="191.519" y="401.141" width="45.059" height="81.855"/>
			</defs>
			<clipPath id="SVGID_16_">
				<use xlink:href="#SVGID_9_"  overflow="visible"/>
			</clipPath>
			<path clip-path="url(#SVGID_16_)" fill="#858789" d="M236.578,428.14v53.173c0,0.635-0.337,1.202-0.896,1.481
				c-0.25,0.135-0.529,0.202-0.798,0.202c-0.327,0-0.664-0.077-0.943-0.27l-41.653-27.871c-0.481-0.308-0.77-0.827-0.77-1.396
				v-50.631c0-0.616,0.337-1.174,0.867-1.463c0.539-0.308,1.183-0.298,1.703,0.02l41.691,25.311
				C236.27,427.023,236.558,427.563,236.578,428.14"/>
		</g>
	</g>
	<path clip-path="url(#SVGID_14_)" fill="#858789" d="M309.197,401.356c-0.539-0.298-1.185-0.284-1.708,0.022l-41.677,25.323
		c-0.499,0.314-0.812,0.86-0.812,1.442v53.171c0,0.623,0.347,1.194,0.901,1.48c0.244,0.136,0.52,0.201,0.79,0.201
		c0.328,0,0.663-0.087,0.939-0.275l41.675-27.858c0.463-0.313,0.747-0.837,0.747-1.41v-50.629
		C310.054,402.213,309.732,401.654,309.197,401.356"/>
</g>
<g>
	<defs>
		<rect id="SVGID_8_" x="198.272" y="329.428" width="133.452" height="161.337"/>
	</defs>
	<clipPath id="SVGID_17_">
		<use xlink:href="#SVGID_8_"  overflow="visible"/>
	</clipPath>
	<path clip-path="url(#SVGID_17_)" fill="#858789" d="M292.43,381.717c-0.011-0.607-0.348-1.173-0.896-1.455l-41.179-21.971
		c-0.495-0.264-1.1-0.264-1.594,0.01l-40.782,22.085c-0.537,0.298-0.886,0.857-0.886,1.481c0,0.612,0.335,1.185,0.871,1.481
		l41.408,23.105c0.262,0.139,0.545,0.21,0.817,0.21c0.302,0,0.588-0.071,0.848-0.22l40.549-23.232
		C292.121,382.902,292.442,382.341,292.43,381.717"/>
</g>
<g>
	<defs>
		<rect id="SVGID_7_" y="205" width="510" height="476"/>
	</defs>
	<clipPath id="SVGID_18_">
		<use xlink:href="#SVGID_7_"  overflow="visible"/>
	</clipPath>
	<g opacity="0.5" clip-path="url(#SVGID_18_)">
		<g>
			<defs>
				<rect id="SVGID_6_" x="20" y="274" width="409.602" height="256"/>
			</defs>
			<clipPath id="SVGID_19_">
				<use xlink:href="#SVGID_6_"  overflow="visible"/>
			</clipPath>
		</g>
	</g>
</g>
<g>
	<defs>
		<rect id="SVGID_5_" y="205" width="510" height="476"/>
	</defs>
	<clipPath id="SVGID_20_">
		<use xlink:href="#SVGID_5_"  overflow="visible"/>
	</clipPath>
	<g opacity="0.5" clip-path="url(#SVGID_20_)">
		<g>
			<defs>
				<rect id="SVGID_4_" x="194.7" y="30.543" width="177.247" height="185.75"/>
			</defs>
			<clipPath id="SVGID_21_">
				<use xlink:href="#SVGID_4_"  overflow="visible"/>
			</clipPath>
			<g clip-path="url(#SVGID_21_)">
				<defs>
					<rect id="SVGID_3_" x="194.7" y="123.166" width="46.82" height="85.054"/>
				</defs>
				<clipPath id="SVGID_22_">
					<use xlink:href="#SVGID_3_"  overflow="visible"/>
				</clipPath>
				<g clip-path="url(#SVGID_22_)">
					<defs>
						<rect id="SVGID_2_" x="194.7" y="123.166" width="46.82" height="85.054"/>
					</defs>
					<clipPath id="SVGID_23_">
						<use xlink:href="#SVGID_2_"  overflow="visible"/>
					</clipPath>
				</g>
			</g>
		</g>
	</g>
	<g opacity="0.5" clip-path="url(#SVGID_20_)">
		<g>
			<defs>
				<rect id="SVGID_1_" x="20" width="409.602" height="256"/>
			</defs>
			<clipPath id="SVGID_24_">
				<use xlink:href="#SVGID_1_"  overflow="visible"/>
			</clipPath>
		</g>
	</g>
</g>
</svg>
