<?xml version="1.0" encoding="utf-8"?>
<!-- Generator: Adobe Illustrator 15.1.0, SVG Export Plug-In  -->
<!DOCTYPE svg PUBLIC "-//W3C//DTD SVG 1.1//EN" "http://www.w3.org/Graphics/SVG/1.1/DTD/svg11.dtd" [
	<!ENTITY ns_flows "http://ns.adobe.com/Flows/1.0/">
]>
<svg version="1.1"
	 xmlns="http://www.w3.org/2000/svg" xmlns:xlink="http://www.w3.org/1999/xlink" xmlns:a="http://ns.adobe.com/AdobeSVGViewerExtensions/3.0/"
	 x="0px" y="0px" width="28px" height="28px" viewBox="0 0 28 28" enable-background="new 0 0 28 28" xml:space="preserve">
<defs>
</defs>
<path id="path3_1_" fill="#fff" d="M18.695,4.652L18.695,4.652h0.719l0.717,0.026l0.719,0.054l0.664,0.08l0.611,0.053
	l0.293,0.026l0.266,0.054l0.24,0.054l0.213,0.053l0.371,0.106L23.43,6.381l-0.055,1.037v0.213v0.213l0.027,0.213l0.027,0.212
	l0.078,0.32l0.08,0.292l0.08,0.267l0.08,0.105l0.053,0.133l0.107,0.187l0.133,0.159l0.133,0.106l0.105,0.134l0.135,0.079
	l0.078,0.054l0.186,0.08l0.055,0.025v0.16l0.053,0.452l0.027,0.346l0.025,0.319v0.398l-0.025,0.452l-0.055,0.585l-0.025,0.532
	l-0.08,0.451l-0.08,0.372l-0.08,0.32l-0.025,0.213l-0.053,0.186l-0.666,0.239l-0.451,0.16l-0.533,0.212l-0.291,0.133l-0.266,0.134
	l-0.639,0.319l-0.639,0.371l-0.32,0.213l-0.371,0.239l-0.266,0.187l-0.24,0.213l-0.238,0.213l-0.24,0.238l-0.238,0.214l-0.213,0.265
	l-0.213,0.24l-0.188,0.239l-0.186,0.266l-0.158,0.267l-0.107,0.266l-0.08,0.159l-0.053,0.134l-0.08,0.292l-0.08,0.292l-0.053,0.292
	v0.16v0.159v0.319l0.027,0.346l0.053,0.319l0.053,0.292l0.053,0.294l0.08,0.239l0.08,0.266l0.107,0.213l-0.107,0.052l-0.16,0.081
	l-0.213,0.079l-0.105,0.054h-0.16l-0.291,0.08h-0.188l-0.213,0.025h-0.186h-0.213l-0.133-0.025h-0.16l-0.266-0.08l-0.293-0.054
	l-0.318-0.132l-0.133-0.054l-0.134-0.053l-0.292-0.161l-0.293-0.212l-0.292-0.187l-0.267-0.238l-0.266-0.24l-0.266-0.267
	l-0.239-0.267l-0.239-0.291l-0.24-0.319l-0.105-0.16l-0.105-0.159l-0.215-0.346l-0.239-0.452l-0.238-0.479l-0.427-0.904
	l-0.398-0.904l-0.186-0.424l-0.213-0.373l-0.212-0.371l-0.08-0.186l-0.134-0.16l-0.212-0.266l-0.08-0.133l-0.133-0.134l-0.107-0.105
	l-0.133-0.106l-0.106-0.054l-0.159-0.079l-0.106-0.08L8.67,15.29H8.51l-0.133-0.026L8.244,15.29H8.111H8.004l-0.132,0.026
	l-0.08,0.053l-0.106,0.054l-0.107,0.053L7.5,15.503L7.34,15.662l-0.16,0.133l-0.107,0.16l-0.158,0.133l-0.107,0.159l-0.133,0.135
	l-0.132,0.131l-0.133,0.134L6.33,16.7l-0.08,0.053l-0.187,0.079l-0.079,0.027l-0.107,0.026H5.771H5.665H5.532l-0.133-0.026H5.292
	L5.16,16.806l-0.107-0.054l-0.106-0.079l-0.212-0.16l-0.107-0.079l-0.106-0.106l-0.106-0.08l-0.08-0.106l-0.159-0.239l-0.08-0.133
	l-0.08-0.133l-0.133-0.267l-0.16-0.266l-0.239-0.531l-0.426-0.931l-0.053-0.134l-0.106-0.133L2.74,13.108l-0.213-0.239l-0.212-0.238
	l-0.479-0.453l-0.266-0.212L1.33,11.727l-0.239-0.239l-0.213-0.267l-0.212-0.238l-0.187-0.294L0.32,10.37l-0.08-0.186l-0.08-0.16
	L0.107,9.838L0.08,9.625L0.027,9.412L0,9.173h6.515V0h6.117v3.854l0.105,0.08l0.106,0.08l0.134,0.08l0.186,0.079l0.186,0.053
	l0.24,0.08l0.212,0.054l0.267,0.053l-0.691,3.084h-1.942l-0.665,2.74h1.995l-0.719,3.351l-0.105,0.506l-0.027,0.292l-0.053,0.318
	v0.347v0.292l0.026,0.293l0.026,0.133l0.027,0.133l0.08,0.213l0.078,0.188l0.107,0.185l0.107,0.16l0.131,0.186l0.107,0.133
	l0.16,0.133l0.159,0.107l0.106,0.105l0.213,0.054l0.159,0.08l0.187,0.079l0.186,0.026l0.187,0.026l0.212,0.026h0.213h0.293
	l0.319-0.026l0.292-0.026l0.32-0.053l0.557-0.106l0.268-0.08l0.211-0.053l0.24-0.08l0.213-0.054l0.293-0.106l0.293-0.133
	l0.611-2.339l-0.08,0.026l-0.133,0.026h-0.293l-0.293,0.025l-0.266,0.027h-0.133l-0.107-0.027l-0.078-0.025h-0.027l-0.025-0.026
	l-0.027-0.026l-0.053-0.027l-0.027-0.08l-0.053-0.053l-0.027-0.133l-0.025-0.105l0.025-0.081l0.027-0.267l0.824-3.563h1.941
	l0.639-2.74h-1.994L18.695,4.652L18.695,4.652z M14.946,5.743L14.946,5.743h2.394l-1.969,8.722h-2.313L14.946,5.743L14.946,5.743z
	 M16.594,2.393L16.594,2.393h0.16l0.107,0.026l0.133,0.025L17.1,2.473l0.107,0.052l0.105,0.08l0.107,0.053l0.078,0.08l0.16,0.187
	l0.08,0.106l0.053,0.106l0.027,0.106l0.025,0.159l0.027,0.106v0.133v0.134l-0.027,0.133l-0.025,0.106l-0.027,0.133l-0.053,0.106
	l-0.08,0.079l-0.053,0.134l-0.08,0.053l-0.08,0.106L17.34,4.679l-0.107,0.054l-0.105,0.053L17.02,4.813l-0.133,0.025l-0.133,0.027
	h-0.16h-0.131l-0.107-0.027l-0.133-0.025l-0.107-0.027l-0.133-0.053l-0.105-0.054l-0.08-0.053l-0.107-0.079l-0.078-0.08l-0.08-0.106
	l-0.053-0.106l-0.055-0.079l-0.025-0.16l-0.053-0.106l-0.027-0.133V3.642V3.509l0.027-0.106l0.053-0.133l0.025-0.106l0.055-0.106
	l0.053-0.133l0.107-0.08l0.051-0.079l0.107-0.106l0.105-0.054l0.107-0.079l0.105-0.053l0.133-0.027l0.107-0.026l0.133-0.026H16.594
	L16.594,2.393z"/>
</svg>
