<!-- NOT USED CURRENTLY -  Originally copied from IMS team from http://www-uat.itg.ti.com/ww/en/test/svg/iconHeader.svg -->

<svg viewBox="0 0 285px 40px">
<g>
	<path
		d="M54.672,9.578v13.576c0,1.438-0.733,1.663-1.44,1.889v0.481h6.267v-0.481c-0.705-0.227-1.439-0.447-1.439-1.889V9.578
		c0-0.818,0.254-1.018,1.327-1.018c2.935,0,4.374,0.058,5.418,1.688l0.366-0.223l-1.184-3.479h-15.27l-1.185,3.479l0.367,0.223
		c1.27-1.608,2.257-1.688,5.446-1.688C54.417,8.562,54.672,8.76,54.672,9.578z M61.812,11.525c0.93,0.254,1.411,0.479,1.411,1.889
		v9.739c0,1.438-0.478,1.663-1.411,1.889v0.482h11.825l1.354-3.396l-0.369-0.253c-1.185,1.561-2.427,1.918-4.063,1.918H67.51
		c-0.958,0-1.184-0.021-1.184-0.961V18.77h3.696c1.439,0,1.664,0.342,1.892,1.188h0.562v-4.062h-0.562
		c-0.228,0.848-0.453,1.217-1.892,1.217h-3.696v-3.416c0-0.707,0.226-0.938,1.184-0.938c0,0,2.372,0,2.597,0
		c1.664,0,2.541,0.428,3.81,1.776l0.366-0.252l-1.184-3.246H61.812V11.525z M77.021,13.191l3.614,5.104l-3.417,4.854
		c-1.043,1.465-1.664,1.661-2.625,1.889v0.479h5.477v-0.479c-1.045-0.198-1.497-0.595-0.791-1.691l2.392-3.733l2.519,3.629
		c0.931,1.327-0.058,1.688-0.906,1.805v0.482h9.905v-0.482c-0.988-0.169-1.439-0.509-0.932-1.861l0.645-1.688h5.929l0.622,1.688
		c0.396,1.104,0.254,1.692-0.904,1.861v0.482h6.097v-0.482c-0.706-0.227-1.355-0.812-1.664-1.638l-4.713-12.363h-3.217
		l-4.516,11.521c-0.481,1.188-0.917,1.76-1.397,2.084c-0.371-0.235-0.715-0.604-1.17-1.236L84,17.78l3.208-4.532
		c0.847-1.215,1.554-1.467,2.4-1.723v-0.482h-5.167v0.482c1.071,0.084,1.382,0.679,0.761,1.604l-2.238,3.315l-2.022-3.036
		c-0.847-1.241-0.227-1.749,0.705-1.896v-0.479H74.79v0.479C75.75,11.779,76.231,12.061,77.021,13.191z M95.928,13.555l2.319,6.323
		h-4.728L95.928,13.555z M105.976,25.523c0-0.229,0.226-0.709,0.507-0.709c0.646,0.312,1.75,0.959,3.78,0.959
		c3.416,0,5.813-1.691,5.813-4.57c0-2.709-1.496-3.812-4.375-4.459l-2.624-0.594c-1.495-0.338-1.975-0.771-1.975-1.692
		c0-1.073,0.845-1.778,2.709-1.778c2.086,0,3.725,0.989,4.909,2.354l0.369-0.254l-1.072-3.729h-0.678
		c0,0.312-0.14,0.649-0.424,0.649c-0.623-0.339-1.581-0.873-3.217-0.873c-2.935,0-5.22,1.521-5.22,4.288
		c0,2.111,1.27,3.438,4.036,4.062l2.484,0.563c1.663,0.359,2.257,0.957,2.257,2.004c0,1.438-1.156,2.201-3.048,2.201
		c-2.653,0-4.345-1.392-5.729-2.992l-0.369,0.254l1.158,4.319L105.976,25.523L105.976,25.523z" />
	<path
		d="M125.218,7.039c0.875,0.253,1.579,0.479,1.579,1.891v14.229c0,1.438-0.704,1.665-1.579,1.889v0.479h6.548v-0.479
		c-0.875-0.226-1.581-0.448-1.581-1.889V8.93c0-1.415,0.706-1.64,1.581-1.891v-0.48h-6.548V7.039L125.218,7.039z M143.194,11.527
		c0.846,0.253,1.327,0.479,1.327,1.89v5.928h-0.084l-7.281-8.3h-4.26v0.482c0.847,0.359,1.412,0.646,1.412,1.889v9.738
		c0,1.354-0.48,1.666-1.412,1.889v0.482h4.825v-0.482c-0.762-0.225-1.495-0.534-1.495-1.889v-8.41h0.084l9.624,10.979h0.506V13.416
		c0-1.411,0.707-1.638,1.272-1.889v-0.483h-4.515L143.194,11.527L143.194,11.527z M155.811,16.748l-2.625-0.592
		c-1.496-0.339-1.977-0.771-1.977-1.693c0-1.068,0.848-1.78,2.708-1.78c2.089,0,3.728,0.99,4.912,2.354l0.368-0.254l-1.071-3.729
		h-0.679c0,0.312-0.141,0.65-0.422,0.65c-0.623-0.339-1.58-0.873-3.217-0.873c-2.938,0-5.229,1.521-5.229,4.288
		c0,2.11,1.271,3.438,4.037,4.062l2.479,0.564c1.666,0.359,2.26,0.958,2.26,2.004c0,1.438-1.152,2.192-3.049,2.192
		c-2.647,0-4.352-1.383-5.729-2.985l-0.368,0.252l1.157,4.312h0.706c0-0.228,0.226-0.703,0.507-0.703
		c0.646,0.312,1.75,0.959,3.78,0.959c3.414,0,5.812-1.688,5.812-4.567C160.184,18.498,158.688,17.396,155.811,16.748z
		 M161.031,11.046l-1.158,3.729l0.368,0.253c1.552-2.062,1.977-2.259,4.036-2.259c0.707,0,0.931,0.057,0.931,0.931v9.456
		c0,1.438-0.422,1.663-1.579,1.889v0.481h6.211v-0.481c-1.13-0.227-1.583-0.439-1.583-1.889V13.7c0-0.874,0.228-0.931,0.935-0.931
		c2.062,0,2.604,0.19,4.147,2.259l0.368-0.253l-1.156-3.729H161.031z M186.175,21.236c-0.875-1.411-1.774-2.034-2.819-2.288v-0.085
		c2.481-0.396,3.896-1.692,3.896-3.812c0-2.812-2.257-4.01-5.896-4.01h-7.422v0.483c0.938,0.252,1.414,0.479,1.414,1.889v9.74
		c0,1.438-0.479,1.662-1.414,1.889v0.481h6.065v-0.481c-0.875-0.227-1.468-0.449-1.468-1.889v-3.614h1.496
		c1.75,0,2.002,0.705,3.133,3.077c0.934,1.948,2.175,3.159,4.515,3.159c1.188,0,1.666-0.229,2.146-0.48v-0.396
		C187.926,24.621,187.303,23.071,186.175,21.236z M181.012,17.85h-2.484v-3.84c0-0.933,0.229-1.184,0.938-1.184h1.604
		c1.75,0,2.771,0.678,2.771,2.37C183.834,16.975,182.676,17.85,181.012,17.85z M199.016,11.527c0.731,0.172,1.439,0.479,1.439,1.89
		v7.14c0,2.372-0.903,3.418-3.584,3.418c-2.85,0-3.868-1.046-3.868-3.418v-7.14c0-1.41,0.535-1.722,1.415-1.89v-0.481h-5.925v0.481
		c0.872,0.141,1.437,0.479,1.437,1.89v7.369c0,3.863,3.357,4.995,6.521,4.995c3.527,0,6.037-1.188,6.037-5.229v-7.14
		c0-1.411,0.429-1.688,1.302-1.891v-0.479h-4.771L199.016,11.527L199.016,11.527z M214.031,20.446l-4.18-9.4h-5.189v0.481
		c0.931,0.253,1.411,0.479,1.411,1.89v9.738c0,1.268-0.537,1.604-1.411,1.889v0.482h4.6v-0.482
		c-0.959-0.251-1.382-0.621-1.382-1.889v-9.087l5.22,11.684h0.396l5.079-11.684v9.087c0,1.438-0.621,1.688-1.325,1.889v0.482h5.924
		v-0.482c-0.929-0.226-1.41-0.448-1.41-1.889v-9.738c0-1.41,0.481-1.638,1.41-1.89v-0.481h-5.105L214.031,20.446z M233.053,23.803
		h-3.048c-0.959,0-1.185-0.021-1.185-0.957v-4.062h3.697c1.438,0,1.666,0.336,1.89,1.185h0.563v-4.062h-0.563
		c-0.224,0.846-0.449,1.215-1.89,1.215h-3.697v-3.415c0-0.706,0.226-0.934,1.185-0.934c0,0,2.37,0,2.597,0
		c1.664,0,2.537,0.425,3.812,1.772l0.363-0.254l-1.188-3.246H224.3v0.483c0.935,0.252,1.413,0.479,1.413,1.889v9.74
		c0,1.438-0.479,1.664-1.413,1.888v0.482h11.826l1.354-3.396l-0.369-0.253C235.93,23.438,234.688,23.803,233.053,23.803z
		 M248.123,11.527c0.845,0.253,1.328,0.479,1.328,1.89v5.928h-0.088l-7.279-8.3h-4.264v0.482c0.849,0.359,1.414,0.646,1.414,1.889
		v9.738c0,1.354-0.481,1.666-1.414,1.889v0.482h4.826v-0.482c-0.771-0.225-1.496-0.534-1.496-1.889v-8.41h0.084l9.623,10.979h0.514
		V13.416c0-1.411,0.705-1.638,1.268-1.889v-0.483h-4.514L248.123,11.527L248.123,11.527z M253.964,11.046l-1.157,3.729l0.368,0.253
		c1.552-2.062,1.976-2.259,4.036-2.259c0.706,0,0.932,0.057,0.932,0.931v9.456c0,1.438-0.422,1.663-1.578,1.889v0.481h6.211v-0.481
		c-1.131-0.227-1.582-0.439-1.582-1.889V13.7c0-0.874,0.229-0.931,0.938-0.931c2.062,0,2.603,0.19,4.146,2.259l0.367-0.253
		l-1.156-3.729H253.964z M274.622,16.748l-2.623-0.592c-1.495-0.339-1.974-0.771-1.974-1.693c0-1.068,0.845-1.78,2.705-1.78
		c2.088,0,3.727,0.99,4.914,2.354L278,14.783l-1.062-3.729h-0.687c0,0.312-0.146,0.65-0.424,0.65
		c-0.621-0.339-1.581-0.873-3.224-0.873c-2.938,0-5.229,1.521-5.229,4.288c0,2.11,1.271,3.438,4.035,4.062l2.479,0.564
		c1.661,0.359,2.26,0.958,2.26,2.004c0,1.438-1.151,2.192-3.051,2.192c-2.647,0-4.348-1.383-5.729-2.985L267,21.208l1.146,4.312
		h0.709c0-0.228,0.229-0.703,0.511-0.703c0.646,0.312,1.755,0.959,3.774,0.959c3.409,0,5.812-1.688,5.812-4.567
		C278.997,18.498,277.5,17.396,274.622,16.748z" />
	<path fill="#CC0000"
		d="M33.731,10.891V6.578h-6.928l-0.874,4.354h2.492l-0.798,4.013H25.13l-0.864,4.343
		c-0.067,0.295-0.117,0.508-0.147,0.713c-0.205,1.332,0.375,1.265,2.241,1.265l-0.853,4.271h-3.261c-3.083,0-5.59-0.026-4.939-3.188
		c0.103-0.483,0.226-0.97,0.315-1.438l1.165-5.963H16.39l0.8-4.012h2.396l0.872-4.354h-2.241V0H9.923v13.368H0
		c0.246,3.466,3.313,3.971,4.431,6.433c0.77,1.697,1.444,4.688,3.694,4.708c1.723,0.021,1.723-2.229,3.941-2.229
		c2.215,0,3.199,4.209,5.17,7.675c1.477,2.722,3.93,4.548,6.154,4.704c1.826,0.127,2.708-0.493,2.708-0.493
		c-0.492-0.991-0.739-1.98-0.739-3.467c0-2.229,1.725-4.455,3.695-5.939c2.708-1.979,5.663-2.729,6.647-2.97v-6.935
		C35.701,14.854,33.731,13.8,33.731,10.891z M22.432,21.254l2.913-14.682h-3.357l-2.911,14.682H22.432z M26.245,1.929h-3.358
		l-0.642,3.238h3.356L26.245,1.929z" />
</g>
</svg>
